<?xml version="1.0" encoding="utf-8"?>
<svg version="1.0" xmlns="http://www.w3.org/2000/svg" width="128.000000pt" height="128.000000pt"
     viewBox="0 0 128.000000 128.000000" preserveAspectRatio="xMidYMid meet" xmlns:bx="https://boxy-svg.com">
    <g transform="translate(0.000000,128.000000) scale(0.100000,-0.100000)" fill="#000000" stroke="none">
        <path d="M622 1257 c-14 -16 -3 -32 27 -42 30 -9 99 -71 122 -110 l19 -30 -47 -47 -47 -48 94 -95 c86 -86 98 -95 132 -95 37 0 38 -1 38 -38 0 -32 8 -45 53 -90 29 -29 56 -52 61 -52 13 0 206 192 206 205 0 6 -24 34 -53 63 -46 45 -58 52 -93 52 -39 0 -40 1 -52 44 -22 82 -159 222 -267 272 -57 27 -174 34 -193 11z m102 -9 c-4 -6 -1 -8 7 -6 8 3 30 -3 50 -13 20 -10 40 -15 44 -11 5 4 6 2 2 -4 -3 -5 14 -21 39 -34 24 -14 44 -28 44 -32 0 -4 18 -21 41 -37 22 -16 40 -32 40 -35 -2 -20 0 -27 8 -22 4 3 17 -10 27 -29 10 -19 22 -35 27 -35 4 0 6 -4 2 -9 -3 -5 -1 -12 4 -16 6 -3 8 -12 5 -19 -3 -9 3 -17 15 -21 12 -3 19 -10 16 -14 -2 -5 12 -8 33 -8 29 -1 46 -9 80 -40 23 -22 42 -44 42 -48 0 -5 -39 -47 -87 -92 l-86 -84 -44 45 c-29 31 -43 53 -43 72 0 38 -27 64 -66 64 -27 0 -45 13 -109 75 -42 41 -74 79 -70 85 3 6 10 8 15 5 5 -3 7 4 5 15 -2 11 0 18 5 15 12 -7 40 35 40 60 0 11 -9 31 -20 45 -11 14 -20 30 -20 36 0 6 -24 28 -54 50 -30 21 -51 41 -46 44 16 10 60 8 54 -2z"/>
        <path d="M646 1128 c3 -5 10 -6 15 -3 13 9 11 12 -6 12 -8 0 -12 -4 -9 -9z"/>
        <path d="M1246 942 c-3 -5 1 -9 9 -9 8 0 12 4 9 9 -3 4 -7 8 -9 8 -2 0 -6 -4 -9 -8z"/>
        <path d="M659 913 c-13 -16 -12 -17 4 -4 9 7 17 15 17 17 0 8 -8 3 -21 -13z"/>
        <path d="M 393.708 619 C -28.292 223 6.708 261 6.708 204 C 6.708 163 11.708 152 38.708 128 C 73.708 97 106.708 93 147.708 114 C 162.708 122 266.708 221 378.708 335 L 758.704 723 L 821.704 784 L 760.704 842 C 726.708 874 697.708 900 695.708 900 C 694.708 900 558.708 774 393.708 619 M 705.708 845 C 709.708 837 718.708 830 727.708 830 C 735.708 830 739.708 827 736.708 824 C 733.708 820 741.704 808 755.704 797 L 781.704 777 L 731.708 731 C 703.708 706 679.708 679 677.708 671 C 674.708 657 614.708 599 501.708 502 C 467.708 472 441.708 444 445.708 439 C 448.708 434 445.708 430 438.708 430 C 423.708 430 379.708 383 387.708 376 C 390.708 373 385.708 370 376.708 370 C 366.708 370 359.708 365 359.708 359 C 359.708 354 355.708 351 350.708 354 C 346.708 357 337.708 348 331.708 335 C 324.708 321 315.708 310 309.708 310 C 303.708 310 301.708 305 305.708 298 C 310.708 290 307.708 289 296.708 293 C 287.708 296 280.708 296 282.708 292 C 285.708 279 147.708 146 117.708 133 C 94.708 123 87.708 123 74.708 136 C 66.708 145 59.708 148 59.708 144 C 59.708 140 50.708 149 39.708 163 C 28.708 177 19.708 194 19.708 202 C 19.708 220 46.708 256 88.708 294 C 107.708 311 143.708 344 167.708 368 C 191.708 391 215.708 410 221.708 410 C 226.708 410 227.708 415 224.708 420 C 221.708 426 226.708 430 235.708 430 C 245.708 430 250.708 433 246.708 436 C 243.708 440 263.708 462 292.708 485 C 321.708 509 357.708 542 372.708 559 C 388.708 576 405.708 590 410.708 590 C 416.708 590 417.708 595 414.708 600 C 411.708 606 415.708 610 424.708 610 C 433.708 610 443.708 619 446.708 630 C 449.708 641 455.708 648 459.708 645 C 463.708 643 487.708 663 512.708 690 C 537.708 718 565.708 740 574.708 740 C 582.708 740 588.708 744 587.708 749 C 584.708 759 678.708 858 692.708 859 C 696.708 860 702.708 853 705.708 845"/>
        <path fill="green"
              d="M 581.122 542.293 L 627.708 517 L 674.708 491 L 677.708 341 L 680.708 190 L 757.708 146 L 834.708 101 L 864.708 118 C 880.708 128 976.708 183 1077.71 240 L 1259.71 344 L 1259.71 560 C 1258.71 754 1257.71 773 1243.71 755 C 1231.71 739 1228.71 702 1230.71 550 L 1232.71 365 L 1195.71 341 C 1175.71 328 1159.71 313 1159.71 308 C 1159.71 303 1155.71 302 1149.71 305 C 1144.71 308 1104.71 288 1061.71 260 C 1017.71 233 971.708 210 958.708 210 C 939.708 210 937.708 208 949.708 200 C 962.708 192 961.708 190 944.708 189 C 933.708 188 920.708 188 916.708 189 C 911.708 190 910.708 186 914.708 180 C 917.708 175 913.708 170 904.708 170 C 895.708 170 877.708 159 864.708 145 L 839.708 121 L 839.708 353 L 839.708 585 L 767.708 624 L 696.708 663 M 708.708 631 C 719.708 620 724.708 609 721.708 605 C 717.708 602 723.708 602 733.708 606 C 748.708 612 750.708 610 744.708 600 C 739.708 591 740.708 589 747.708 594 C 753.708 598 771.708 594 786.708 586 L 814.708 572 L 817.708 436 C 820.708 337 817.708 295 808.708 284 C 799.708 272 798.708 267 808.708 257 C 818.708 248 819.708 249 814.708 262 C 810.708 272 811.708 280 815.708 280 C 822.708 280 825.708 181 819.708 142 C 819.708 140 806.708 148 789.708 160 C 773.708 172 759.708 179 759.708 175 C 759.708 172 747.708 176 732.708 185 L 704.708 201 L 704.708 350 C 704.708 431 702.708 497 700.708 495 C 698.708 493 687.708 500 675.708 512 C 664.708 523 641.708 538 625.708 545 L 595.244 558.464 C 595.244 558.464 683.708 650 685.708 650 C 687.708 650 698.708 641 708.708 631"/>
        <path fill="green"
              d="M1099 608 c0 -7 0 -49 1 -93 l1 -81 -110 -63 c-148 -85 -148 -85 -132 -105 17 -20 28 -21 28 -2 0 8 -7 12 -16 9 -14 -4 -14 -4 -1 6 8 6 21 11 29 11 7 0 30 14 51 30 21 17 42 30 46 30 5 0 2 -5 -6 -10 -9 -6 -10 -10 -3 -10 7 0 16 6 20 13 4 7 26 24 48 37 22 12 46 30 53 38 15 19 17 202 2 202 -5 0 -10 -6 -11 -12z"/>
        <path fill="green" d="M776 672 c-3 -5 1 -9 9 -9 8 0 12 4 9 9 -3 4 -7 8 -9 8 -2 0 -6 -4 -9 -8z"/>
        <path fill="green" d="M980 230 c-9 -6 -10 -10 -3 -10 6 0 15 5 18 10 8 12 4 12 -15 0z"/>
    </g>
</svg>