<?xml version="1.0" standalone="no"?>
<!DOCTYPE svg PUBLIC "-//W3C//DTD SVG 20010904//EN"
        "http://www.w3.org/TR/2001/REC-SVG-20010904/DTD/svg10.dtd">
<svg version="1.0" xmlns="http://www.w3.org/2000/svg"
     width="128.000000pt" height="128.000000pt" viewBox="0 0 128.000000 128.000000"
     preserveAspectRatio="xMidYMid meet">
    <g transform="translate(0.000000,128.000000) scale(0.100000,-0.100000)"
       fill="#000000" stroke="none">
        <path d="M622 1257 c-14 -16 -3 -32 27 -42 30 -9 99 -71 122 -110 l19 -30 -47
-47 -47 -48 94 -95 c86 -86 98 -95 132 -95 37 0 38 -1 38 -38 0 -32 8 -45 53
-90 29 -29 56 -52 61 -52 13 0 206 192 206 205 0 6 -24 34 -53 63 -46 45 -58
52 -93 52 -39 0 -40 1 -52 44 -22 82 -159 222 -267 272 -57 27 -174 34 -193
11z m102 -9 c-4 -6 -1 -8 7 -6 8 3 30 -3 50 -13 20 -10 40 -15 44 -11 5 4 6 2
2 -4 -3 -5 14 -21 39 -34 24 -14 44 -28 44 -32 0 -4 18 -21 41 -37 22 -16 40
-32 40 -35 -2 -20 0 -27 8 -22 4 3 17 -10 27 -29 10 -19 22 -35 27 -35 4 0 6
-4 2 -9 -3 -5 -1 -12 4 -16 6 -3 8 -12 5 -19 -3 -9 3 -17 15 -21 12 -3 19 -10
16 -14 -2 -5 12 -8 33 -8 29 -1 46 -9 80 -40 23 -22 42 -44 42 -48 0 -5 -39
-47 -87 -92 l-86 -84 -44 45 c-29 31 -43 53 -43 72 0 38 -27 64 -66 64 -27 0
-45 13 -109 75 -42 41 -74 79 -70 85 3 6 10 8 15 5 5 -3 7 4 5 15 -2 11 0 18
5 15 12 -7 40 35 40 60 0 11 -9 31 -20 45 -11 14 -20 30 -20 36 0 6 -24 28
-54 50 -30 21 -51 41 -46 44 16 10 60 8 54 -2z"/>
        <path d="M646 1128 c3 -5 10 -6 15 -3 13 9 11 12 -6 12 -8 0 -12 -4 -9 -9z"/>
        <path d="M1246 942 c-3 -5 1 -9 9 -9 8 0 12 4 9 9 -3 4 -7 8 -9 8 -2 0 -6 -4
-9 -8z"/>
        <path d="M659 913 c-13 -16 -12 -17 4 -4 9 7 17 15 17 17 0 8 -8 3 -21 -13z"/>
        <path fill="green" d="M394 619 c-422 -396 -387 -358 -387 -415 0 -41 5 -52 32 -76 35 -31
68 -35 109 -14 15 8 119 107 231 221 l203 207 46 -25 47 -26 3 -150 3 -151 77
 -44 77 -45 30 17 c16 10 112 65 213 122 l182 104 0 216 c-1 194 -2 213 -16
195 -12 -16 -15 -53 -13 -205 l2 -185 -37 -24 c-20 -13 -36 -28 -36 -33 0 -5
 -4 -6 -10 -3 -5 3 -45 -17 -88 -45 -44 -27 -90 -50 -103 -50 -19 0 -21 -2 -9
 -10 13 -8 12 -10 -5 -11 -11 -1 -24 -1 -28 0 -5 1 -6 -3 -2 -9 3 -5 -1 -10
 -10 -10 -9 0 -27 -11 -40 -25 l-25 -24 0 232 0 232 -72 39 -71 39 62 60 63 61
 -61 58 c-34 32 -63 58 -65 58 -1 0 -137 -126 -302 -281z m312 226 c4 -8 13
 -15 22 -15 8 0 12 -3 9 -6 -3 -4 5 -16 19 -27 l26 -20 -50 -46 c-28 -25 -52
 -52 -54 -60 -3 -14 -63 -72 -176 -169 -34 -30 -60 -58 -56 -63 3 -5 0 -9 -7
 -9 -15 0 -59 -47 -51 -54 3 -3 -2 -6 -11 -6 -10 0 -17 -5 -17 -11 0 -5 -4 -8
 -9 -5 -4 3 -13 -6 -19 -19 -7 -14 -16 -25 -22 -25 -6 0 -8 -5 -4 -12 5 -8 2
 -9 -9 -5 -9 3 -16 3 -14 -1 3 -13 -135 -146 -165 -159 -23 -10 -30 -10 -43 3
 -8 9 -15 12 -15 8 0 -4 -9 5 -20 19 -11 14 -20 31 -20 39 0 18 27 54 69 92 19
17 55 50 79 74 24 23 48 42 54 42 5 0 6 5 3 10 -3 6 2 10 11 10 10 0 15 3 11
6 -3 4 17 26 46 49 29 24 65 57 80 74 16 17 33 31 38 31 6 0 7 5 4 10 -3 6 1
10 10 10 9 0 19 9 22 20 3 11 9 18 13 15 4 -2 28 18 53 45 25 28 53 50 62 50
8 0 14 4 13 9 -3 10 91 109 105 110 4 1 10 -6 13 -14z m3 -214 c11 -11 16 -22
13 -26 -4 -3 2 -3 12 1 15 6 17 4 11 -6 -5 -9 -4 -11 3 -6 6 4 24 0 39 -8 l28
 -14 3 -136 c3 -99 0 -141 -9 -152 -9 -12 -10 -17 0 -27 10 -9 11 -8 6 5 -4 10
 -3 18 1 18 7 0 10 -99 4 -138 0 -2 -13 6 -30 18 -16 12 -30 19 -30 15 0 -3
 -12 1 -27 10 l-28 16 0 149 c0 81 -2 147 -4 145 -2 -2 -13 5 -25 17 -11 11
 -34 26 -50 33 l-29 12 43 47 c23 25 44 46 46 46 2 0 13 -9 23 -19z"/>
        <path d="M1099 608 c0 -7 0 -49 1 -93 l1 -81 -110 -63 c-148 -85 -148 -85
-132 -105 17 -20 28 -21 28 -2 0 8 -7 12 -16 9 -14 -4 -14 -4 -1 6 8 6 21 11
29 11 7 0 30 14 51 30 21 17 42 30 46 30 5 0 2 -5 -6 -10 -9 -6 -10 -10 -3
-10 7 0 16 6 20 13 4 7 26 24 48 37 22 12 46 30 53 38 15 19 17 202 2 202 -5
0 -10 -6 -11 -12z"/>
        <path d="M776 672 c-3 -5 1 -9 9 -9 8 0 12 4 9 9 -3 4 -7 8 -9 8 -2 0 -6 -4
-9 -8z"/>
        <path d="M980 230 c-9 -6 -10 -10 -3 -10 6 0 15 5 18 10 8 12 4 12 -15 0z"/>
    </g>
</svg>
